<mxfile host="app.diagrams.net" modified="2024-04-16T18:04:30.977Z" agent="Mozilla/5.0 (Windows NT 10.0; Win64; x64) AppleWebKit/537.36 (KHTML, like Gecko) Chrome/123.0.0.0 Safari/537.36" etag="9xHOYSYIjuCEm1OkhMZ8" version="24.0.1" type="device">
  <diagram name="PÃ¡gina-1" id="h-gL1v4Q5yCwKS7eJ3wE">
    <mxGraphModel dx="989" dy="532" grid="0" gridSize="10" guides="1" tooltips="1" connect="1" arrows="1" fold="1" page="1" pageScale="1" pageWidth="827" pageHeight="1169" math="0" shadow="0">
      <root>
        <mxCell id="0" />
        <mxCell id="1" parent="0" />
        <mxCell id="2FOvtZhaNJ3ioWk3AINi-24" value="domain" style="shape=folder;fontStyle=1;spacingTop=10;tabWidth=40;tabHeight=14;tabPosition=left;html=1;whiteSpace=wrap;" vertex="1" parent="1">
          <mxGeometry x="13" y="5" width="806" height="363" as="geometry" />
        </mxCell>
        <mxCell id="2FOvtZhaNJ3ioWk3AINi-2" value="&lt;p style=&quot;margin:0px;margin-top:4px;text-align:center;&quot;&gt;&lt;b&gt;User&lt;/b&gt;&lt;/p&gt;&lt;hr size=&quot;1&quot; style=&quot;border-style:solid;&quot;&gt;&lt;p style=&quot;margin:0px;margin-left:4px;&quot;&gt;- id: Long&lt;/p&gt;&lt;p style=&quot;margin:0px;margin-left:4px;&quot;&gt;- firstName: String&lt;/p&gt;&lt;p style=&quot;margin:0px;margin-left:4px;&quot;&gt;- lastName: String&lt;/p&gt;&lt;p style=&quot;margin:0px;margin-left:4px;&quot;&gt;- document: String&lt;/p&gt;&lt;p style=&quot;margin:0px;margin-left:4px;&quot;&gt;- email: String&lt;/p&gt;&lt;p style=&quot;margin:0px;margin-left:4px;&quot;&gt;- password: String&lt;/p&gt;&lt;p style=&quot;margin:0px;margin-left:4px;&quot;&gt;- balance: BigDecimal&lt;/p&gt;&lt;p style=&quot;margin:0px;margin-left:4px;&quot;&gt;- userType: UserType&lt;/p&gt;" style="verticalAlign=top;align=left;overflow=fill;html=1;whiteSpace=wrap;" vertex="1" parent="1">
          <mxGeometry x="494" y="204" width="182" height="150" as="geometry" />
        </mxCell>
        <mxCell id="2FOvtZhaNJ3ioWk3AINi-3" value="&lt;p style=&quot;margin:0px;margin-top:4px;text-align:center;&quot;&gt;&lt;b&gt;Transacao&lt;/b&gt;&lt;/p&gt;&lt;hr size=&quot;1&quot; style=&quot;border-style:solid;&quot;&gt;&lt;p style=&quot;margin:0px;margin-left:4px;&quot;&gt;- id: UUID&lt;/p&gt;&lt;p style=&quot;margin:0px;margin-left:4px;&quot;&gt;- amount: BigDecimal&lt;/p&gt;&lt;p style=&quot;margin:0px;margin-left:4px;&quot;&gt;- payer: User&lt;/p&gt;&lt;p style=&quot;margin:0px;margin-left:4px;&quot;&gt;- receiver: User&lt;/p&gt;&lt;p style=&quot;margin:0px;margin-left:4px;&quot;&gt;- timestamp: LocalDateTime&lt;/p&gt;&lt;p style=&quot;margin:0px;margin-left:4px;&quot;&gt;&lt;br&gt;&lt;/p&gt;" style="verticalAlign=top;align=left;overflow=fill;html=1;whiteSpace=wrap;" vertex="1" parent="1">
          <mxGeometry x="73" y="224" width="170" height="110" as="geometry" />
        </mxCell>
        <mxCell id="2FOvtZhaNJ3ioWk3AINi-10" value="&lt;p style=&quot;margin: 4px 0px 0px;&quot;&gt;&lt;/p&gt;&lt;div style=&quot;text-align: center;&quot;&gt;&lt;span style=&quot;background-color: initial;&quot;&gt;&amp;lt;&amp;lt;enumerator&amp;gt;&amp;gt;&lt;/span&gt;&lt;/div&gt;&lt;b&gt;&lt;div style=&quot;text-align: center;&quot;&gt;&lt;b style=&quot;background-color: initial;&quot;&gt;UserType&lt;/b&gt;&lt;/div&gt;&lt;/b&gt;&lt;p&gt;&lt;/p&gt;&lt;hr size=&quot;1&quot; style=&quot;border-style:solid;&quot;&gt;&lt;p style=&quot;margin:0px;margin-left:4px;&quot;&gt;- COMMON&lt;/p&gt;&lt;p style=&quot;margin:0px;margin-left:4px;&quot;&gt;- MERCHANT&lt;/p&gt;&lt;p style=&quot;margin:0px;margin-left:4px;&quot;&gt;&lt;br&gt;&lt;/p&gt;" style="verticalAlign=top;align=left;overflow=fill;html=1;whiteSpace=wrap;imageVerticalAlign=middle;imageAlign=center;" vertex="1" parent="1">
          <mxGeometry x="665" y="45" width="109" height="88" as="geometry" />
        </mxCell>
        <mxCell id="2FOvtZhaNJ3ioWk3AINi-11" value="" style="line;strokeWidth=1;fillColor=none;align=left;verticalAlign=middle;spacingTop=-1;spacingLeft=3;spacingRight=3;rotatable=0;labelPosition=right;points=[];portConstraint=eastwest;strokeColor=inherit;" vertex="1" parent="1">
          <mxGeometry x="581" y="85" width="84" height="8" as="geometry" />
        </mxCell>
        <mxCell id="2FOvtZhaNJ3ioWk3AINi-14" value="" style="line;strokeWidth=1;fillColor=none;align=left;verticalAlign=middle;spacingTop=-1;spacingLeft=3;spacingRight=3;rotatable=0;labelPosition=right;points=[];portConstraint=eastwest;strokeColor=inherit;flipV=0;flipH=0;direction=north;" vertex="1" parent="1">
          <mxGeometry x="564.5" y="90" width="35" height="114" as="geometry" />
        </mxCell>
        <mxCell id="2FOvtZhaNJ3ioWk3AINi-17" value="" style="endArrow=open;html=1;endSize=12;startArrow=diamondThin;startSize=14;startFill=0;edgeStyle=orthogonalEdgeStyle;align=left;verticalAlign=bottom;rounded=0;entryX=0;entryY=0.5;entryDx=0;entryDy=0;exitX=1;exitY=0.5;exitDx=0;exitDy=0;" edge="1" parent="1">
          <mxGeometry x="-0.8406" y="11" relative="1" as="geometry">
            <mxPoint x="244" y="279" as="sourcePoint" />
            <mxPoint x="495" y="279" as="targetPoint" />
            <mxPoint as="offset" />
          </mxGeometry>
        </mxCell>
        <mxCell id="2FOvtZhaNJ3ioWk3AINi-22" value="*" style="text;html=1;align=center;verticalAlign=middle;resizable=0;points=[];autosize=1;strokeColor=none;fillColor=none;" vertex="1" parent="1">
          <mxGeometry x="255" y="257" width="23" height="26" as="geometry" />
        </mxCell>
        <mxCell id="2FOvtZhaNJ3ioWk3AINi-23" value="1" style="text;html=1;align=center;verticalAlign=middle;resizable=0;points=[];autosize=1;strokeColor=none;fillColor=none;" vertex="1" parent="1">
          <mxGeometry x="455" y="257" width="25" height="26" as="geometry" />
        </mxCell>
      </root>
    </mxGraphModel>
  </diagram>
</mxfile>
